<svg width="41" height="41" viewBox="0 0 41 41" fill="none" xmlns="http://www.w3.org/2000/svg">
<path d="M31.7196 1.41499L20.3553 12.7792L8.99112 1.41499C7.59664 0.020503 5.33484 0.020503 3.94036 1.41499L1.41498 3.94037C0.0204944 5.33485 0.0204944 7.59665 1.41498 8.99113L12.7792 20.3553L1.41498 31.7196C0.0204944 33.114 0.0204944 35.3758 1.41498 36.7703L3.94036 39.2957C5.33484 40.6902 7.59664 40.6902 8.99112 39.2957L20.3553 27.9315L31.7196 39.2957C33.114 40.6902 35.3758 40.6902 36.7703 39.2957L39.2957 36.7703C40.6902 35.3758 40.6902 33.114 39.2957 31.7196L27.9315 20.3553L39.2957 8.99113C40.6902 7.59665 40.6902 5.33485 39.2957 3.94037L36.7703 1.41499C35.3758 0.020503 33.114 0.020503 31.7196 1.41499Z" fill="#FF9211"/>
</svg>
